<?xml version="1.0" encoding="utf-8"?>
<!-- Generator: Adobe Illustrator 25.0.0, SVG Export Plug-In . SVG Version: 6.00 Build 0)  -->
<svg version="1.1" id="Capa_1" xmlns="http://www.w3.org/2000/svg" xmlns:xlink="http://www.w3.org/1999/xlink" x="0px" y="0px"
	 viewBox="0 0 743 114" style="enable-background:new 0 0 743 114;" xml:space="preserve">
<style type="text/css">
	.st0{fill-rule:evenodd;clip-rule:evenodd;fill:none;}
	.st1{font-family:'Bauhaus93';}
	.st2{font-size:79px;}
	.st3{letter-spacing:2;}
</style>
<path d="M60.4,75.9c15.9,0,28.7-8,28.7-18V25.3c0-9.9-12.9-18-28.7-18s-28.7,8-28.7,18v32.6C31.7,67.9,44.5,75.9,60.4,75.9z
	 M36.9,25.3c0-8.1,10.5-14.7,23.5-14.7s23.5,6.6,23.5,14.7v32.6c0,8.1-10.5,14.7-23.5,14.7S36.9,66,36.9,57.9V25.3L36.9,25.3z"/>
<path d="M99.6,41.6v16.3c0,13.5-17.6,24.5-39.2,24.5s-39.2-11-39.2-24.5V41.6H16v16.3c0,14.8,18.7,26.9,42.1,27.7h-0.3V102H34.3v3.3
	h52.3V102H63.1V85.6h-0.4c23.4-0.7,42.2-12.8,42.2-27.7V41.6L99.6,41.6L99.6,41.6z"/>
<rect x="145.9" y="29.5" class="st0" width="603.4" height="92.7"/>
<text transform="matrix(1 0 0 1 145.9131 82.2112)"><tspan x="0" y="0" class="st1 st2 st3">ElSaltoPodCas</tspan><tspan x="536.3" y="0" class="st1 st2">t</tspan></text>
</svg>
