<?xml version="1.0" encoding="utf-8"?>
<!-- Generator: Adobe Illustrator 25.0.0, SVG Export Plug-In . SVG Version: 6.00 Build 0)  -->
<svg version="1.1" id="Capa_1" xmlns="http://www.w3.org/2000/svg" xmlns:xlink="http://www.w3.org/1999/xlink" x="0px" y="0px"
	 viewBox="0 0 500 500" style="enable-background:new 0 0 500 500;" xml:space="preserve">
<g id="icomoon-ignore">
</g>
<path d="M250.1,344.9c62.9,0,113.9-39,113.9-87.1V99.5c0-48.1-51-87.1-113.9-87.1s-113.9,39-113.9,87.1v158.3
	C136.2,305.9,187.2,344.9,250.1,344.9z M156.9,99.5c0-39.3,41.8-71.2,93.2-71.2s93.2,31.9,93.2,71.2v158.3
	c0,39.3-41.8,71.2-93.2,71.2s-93.2-31.9-93.2-71.2V99.5L156.9,99.5z"/>
<path d="M405.3,178.7v79.1c0,65.5-69.7,118.7-155.3,118.7S94.7,323.3,94.7,257.8v-79.1H74v79.1C74,329.7,148.1,388.4,241,392h-1.3
	v79.7h-93.2v15.8h207.1v-15.8h-93.1V392H259c92.9-3.6,167.1-62.3,167.1-134.2v-79.1L405.3,178.7L405.3,178.7z"/>
</svg>
